<?xml version="1.0" encoding="UTF-8"?>
<svg>
    <defs>
        <svg id="user" viewBox="0 0 24 24">
            <path d="M12 12c2.21 0 4-1.79 4-4s-1.79-4-4-4-4 1.79-4 4 1.79 4 4 4zm0 2c-2.67 0-8 1.34-8 4v2h16v-2c0-2.66-5.33-4-8-4z"/>
            <path d="M0 0h24v24H0z" fill="none"/>
        </svg>
        <svg id="location" viewBox="0 0 24 24">
            <path d="M12 2C8.13 2 5 5.13 5 9c0 5.25 7 13 7 13s7-7.75 7-13c0-3.87-3.13-7-7-7zm0 9.5c-1.38 0-2.5-1.12-2.5-2.5s1.12-2.5 2.5-2.5 2.5 1.12 2.5 2.5-1.12 2.5-2.5 2.5z"/>
            <path d="M0 0h24v24H0z" fill="none"/>
        </svg>
        <svg id="state" viewBox="0 0 24 24">
            <path d="M0 0h24v24H0z" fill="none"/>
            <path d="M12 2C6.48 2 2 6.48 2 12s4.48 10 10 10 10-4.48 10-10S17.52 2 12 2zm-1 17.93c-3.95-.49-7-3.85-7-7.93 0-.62.08-1.21.21-1.79L9 15v1c0 1.1.9 2 2 2v1.93zm6.9-2.54c-.26-.81-1-1.39-1.9-1.39h-1v-3c0-.55-.45-1-1-1H8v-2h2c.55 0 1-.45 1-1V7h2c1.1 0 2-.9 2-2v-.41c2.93 1.19 5 4.06 5 7.41 0 2.08-.8 3.97-2.1 5.39z"/>
        </svg>
        <svg id="product" viewBox="0 0 512 512">
            <g>
                <path d="M398.6,169.2c-0.9-2.2-2-4.3-3.5-6.1l-83.8-91.7c-1.9-2.1-4.2-3.6-6.7-4.9c-2.9-1.5-6.1-2.1-9.5-2.1H135.2		c-12.4,0-22.7,10.6-22.7,23.9v335.2c0,13.4,10.3,24.9,22.7,24.9h243.1c12.4,0,22.2-11.5,22.2-24.9V179.4		C400.5,175.8,400,172.3,398.6,169.2z M160.5,178.6c0-1.5,1.8-2.1,3.4-2.1h70.8c1.6,0,2.8,0.6,2.8,2.1v10.8c0,1.4-1.1,3.1-2.8,3.1		h-70.8c-1.6,0-3.4-1.7-3.4-3.1V178.6z M160.5,306.6c0-1.5,1.8-2.1,3.4-2.1h122.2c1.6,0,2.4,0.6,2.4,2.1v10.8c0,1.4-0.7,3.1-2.4,3.1		H163.9c-1.6,0-3.4-1.7-3.4-3.1V306.6z M320.5,381.4c0,1.4-0.7,3.1-2.4,3.1H163.9c-1.6,0-3.4-1.7-3.4-3.1v-10.8		c0-1.5,1.8-2.1,3.4-2.1h154.2c1.6,0,2.4,0.6,2.4,2.1V381.4z M352.5,253.4c0,1.4-0.7,3.1-2.4,3.1H163.9c-1.6,0-3.4-1.7-3.4-3.1		v-10.8c0-1.5,1.8-2.1,3.4-2.1h186.2c1.6,0,2.4,0.6,2.4,2.1V253.4z M305.6,177.5c-5.6,0-11.1-5.2-11.1-11.3v-66l71.2,77.3H305.6z"/>
            </g>
        </svg>
        <svg id="ticker" viewBox="0 0 24 24">
            <path d="M12 2C6.48 2 2 6.48 2 12s4.48 10 10 10 10-4.48 10-10S17.52 2 12 2zm1.41 16.09V20h-2.67v-1.93c-1.71-.36-3.16-1.46-3.27-3.4h1.96c.1 1.05.82 1.87 2.65 1.87 1.96 0 2.4-.98 2.4-1.59 0-.83-.44-1.61-2.67-2.14-2.48-.6-4.18-1.62-4.18-3.67 0-1.72 1.39-2.84 3.11-3.21V4h2.67v1.95c1.86.45 2.79 1.86 2.85 3.39H14.3c-.05-1.11-.64-1.87-2.22-1.87-1.5 0-2.4.68-2.4 1.64 0 .84.65 1.39 2.67 1.91s4.18 1.39 4.18 3.91c-.01 1.83-1.38 2.83-3.12 3.16z"/>
            <path d="M0 0h24v24H0z" fill="none"/>
        </svg>
        <svg id="retailerstorejob" viewBox="0 0 24 24">
            <path d="M0 0h24v24H0z" fill="none"/>
            <path d="M20 6h-4V4c0-1.11-.89-2-2-2h-4c-1.11 0-2 .89-2 2v2H4c-1.11 0-1.99.89-1.99 2L2 19c0 1.11.89 2 2 2h16c1.11 0 2-.89 2-2V8c0-1.11-.89-2-2-2zm-6 0h-4V4h4v2z"/>
        </svg>
        <svg id="stockprice" viewBox="0 0 24 24">
            <path d="M3.5 18.49l6-6.01 4 4L22 6.92l-1.41-1.41-7.09 7.97-4-4L2 16.99z"/>
            <path d="M0 0h24v24H0z" fill="none"/>
        </svg>
        <svg id="company" viewBox="0 0 24 24">
            <path d="M0 0h24v24H0z" fill="none"/>
            <path d="M20 4H4v2h16V4zm1 10v-2l-1-5H4l-1 5v2h1v6h10v-6h4v6h2v-6h1zm-9 4H6v-4h6v4z"/>
        </svg>
    </defs>
</svg>  