<?xml version="1.0" encoding="UTF-8"?>
<svg>
    <defs>
        <svg id="user" viewBox="0 0 24 24">
            <path d="M12 12c2.21 0 4-1.79 4-4s-1.79-4-4-4-4 1.79-4 4 1.79 4 4 4zm0 2c-2.67 0-8 1.34-8 4v2h16v-2c0-2.66-5.33-4-8-4z"/>
            <path d="M0 0h24v24H0z" fill="none"/>
        </svg>
        <svg id="car" viewBox="0 0 24 24">
            <path d="M18.92 6.01C18.72 5.42 18.16 5 17.5 5h-11c-.66 0-1.21.42-1.42 1.01L3 12v8c0 .55.45 1 1 1h1c.55 0 1-.45 1-1v-1h12v1c0 .55.45 1 1 1h1c.55 0 1-.45 1-1v-8l-2.08-5.99zM6.5 16c-.83 0-1.5-.67-1.5-1.5S5.67 13 6.5 13s1.5.67 1.5 1.5S7.33 16 6.5 16zm11 0c-.83 0-1.5-.67-1.5-1.5s.67-1.5 1.5-1.5 1.5.67 1.5 1.5-.67 1.5-1.5 1.5zM5 11l1.5-4.5h11L19 11H5z"/>
            <path d="M0 0h24v24H0z" fill="none"/>
        </svg>
        <svg id="employee" viewBox="0 0 24 24">
            <path d="M12 12c2.21 0 4-1.79 4-4s-1.79-4-4-4-4 1.79-4 4 1.79 4 4 4zm0 2c-2.67 0-8 1.34-8 4v2h16v-2c0-2.66-5.33-4-8-4z"/>
            <path d="M0 0h24v24H0z" fill="none"/>
        </svg>
        <svg id="project" viewBox="0 0 24 24">
            <path d="M11 9.16V2c-5 .5-9 4.79-9 10s4 9.5 9 10v-7.16c-1-.41-2-1.52-2-2.84s1-2.43 2-2.84zM14.86 11H22c-.48-4.75-4-8.53-9-9v7.16c1 .3 1.52.98 1.86 1.84zM13 14.84V22c5-.47 8.52-4.25 9-9h-7.14c-.34.86-.86 1.54-1.86 1.84z"/>
            <path d="M0 0h24v24H0z" fill="none"/>
        </svg>
        <svg id="department" viewBox="0 0 1000 1000">
            <metadata> Svg Vector Icons : http://www.onlinewebfonts.com/icon </metadata>
            <g>
                <path d="M369.3,173.5c0,17.1,3.4,34.3,10,50c6.6,15.7,16.2,30.4,28.4,42.4c12,12,26.7,21.8,42.4,28.4c15.9,6.6,32.8,10,50,10c17.1,0,34.3-3.4,50-10c15.7-6.6,30.4-16.2,42.4-28.4c12-12,21.8-26.7,28.4-42.4c6.6-15.9,10-32.8,10-50c0-17.1-3.4-34.3-10-50c-6.6-15.7-16.2-30.4-28.4-42.4c-12-12-26.7-21.8-42.4-28.4c-15.9-6.6-32.8-10-50-10c-17.1,0-34.3,3.4-50,10c-15.7,6.6-30.4,16.2-42.4,28.4c-12,12-21.8,26.7-28.4,42.4C372.8,139.2,369.3,156.4,369.3,173.5L369.3,173.5z"/>
                <path d="M173.4,532.6h293.9h65.4h293.9v98h65.2v-98v-65.4h-65.4H532.5v-98h-65.4v98H173.1H108v65.4v98h65.4V532.6z"/>
                <path d="M10,826.5c0,17.1,3.4,34.3,10,50s16.2,30.4,28.4,42.4c12,12,26.7,21.8,42.4,28.4c15.9,6.6,32.8,10,50,10c17.1,0,34.3-3.4,50-10c15.7-6.6,30.4-16.2,42.4-28.4c12-12,21.8-26.7,28.4-42.4c6.6-15.7,10-32.8,10-50c0-17.1-3.4-34.3-10-50c-6.6-15.7-16.2-30.4-28.4-42.4c-12-12-26.7-21.8-42.4-28.4c-15.9-6.6-32.8-10-50-10c-17.1,0-34.3,3.4-50,10c-15.7,6.6-30.4,16.2-42.4,28.4c-12,12-21.8,26.7-28.4,42.4C13.4,792.5,10,809.6,10,826.5L10,826.5z"/>
                <path d="M728.4,826.5c0,17.1,3.4,34.3,10,50c6.6,15.7,16.2,30.4,28.4,42.4c12,12,26.7,21.8,42.4,28.4c15.7,6.6,32.8,10,50,10c17.1,0,34.3-3.4,50-10c15.9-6.6,30.4-16.2,42.4-28.4c12-12,21.8-26.7,28.4-42.4c6.6-15.7,10-32.8,10-50c0-17.1-3.4-34.3-10-50c-6.6-15.7-16.2-30.4-28.4-42.4c-12-12-26.7-21.8-42.4-28.4c-15.7-6.6-32.8-10-50-10c-17.1,0-34.3,3.4-50,10c-15.7,6.6-30.4,16.2-42.4,28.4c-12,12-21.8,26.7-28.4,42.4C731.8,792.5,728.4,809.6,728.4,826.5L728.4,826.5z"/>
                <path d="M369.3,826.5c0,17.1,3.4,34.3,10,50c6.6,15.7,16.2,30.4,28.4,42.4c12,12,26.7,21.8,42.4,28.4c15.9,6.6,32.8,10,50,10c17.1,0,34.3-3.4,50-10c15.7-6.6,30.4-16.2,42.4-28.4c12-12,21.8-26.7,28.4-42.4c6.6-15.7,10-32.8,10-50c0-17.1-3.4-34.3-10-50c-6.6-15.7-16.2-30.4-28.4-42.4c-12-12-26.7-21.8-42.4-28.4c-15.9-6.6-32.8-10-50-10c-17.1,0-34.3,3.4-50,10c-15.7,6.6-30.4,16.2-42.4,28.4c-12,12-21.8,26.7-28.4,42.4C372.8,792.5,369.3,809.6,369.3,826.5L369.3,826.5z"/>
            </g>
        </svg>
    </defs>
</svg>  