<?xml version="1.0" encoding="UTF-8"?>
<svg>
    <defs>
        <svg id="security" viewBox="0 0 24 24">
            <path d="M12 1L3 5v6c0 5.55 3.84 10.74 9 12 5.16-1.26 9-6.45 9-12V5l-9-4zm0 10.99h7c-.53 4.12-3.28 7.79-7 8.94V12H5V6.3l7-3.11v8.8z"/>
            <path d="M0 0h24v24H0z" fill="none"/>
        </svg>
        <svg id="facebook" viewBox="0 0 16 16">
            <path d="M15.117 0H.883C.395 0 0 .395 0 .883v14.234c0 .488.395.883.883.883h7.663V9.804H6.46V7.39h2.086V5.607c0-2.066 1.262-3.19 3.106-3.19.883 0 1.642.064 1.863.094v2.16h-1.28c-1 0-1.195.48-1.195 1.18v1.54h2.39l-.31 2.42h-2.08V16h4.077c.488 0 .883-.395.883-.883V.883C16 .395 15.605 0 15.117 0" fill-rule="nonzero" />
        </svg>
        <svg id="twitter" viewBox="0 0 256 209">
            <g>
                <path d="M256,25.4500259 C246.580841,29.6272672 236.458451,32.4504868 225.834156,33.7202333 C236.678503,27.2198053 245.00583,16.9269929 248.927437,4.66307685 C238.779765,10.6812633 227.539325,15.0523376 215.57599,17.408298 C205.994835,7.2006971 192.34506,0.822 177.239197,0.822 C148.232605,0.822 124.716076,24.3375931 124.716076,53.3423116 C124.716076,57.4586875 125.181462,61.4673784 126.076652,65.3112644 C82.4258385,63.1210453 43.7257252,42.211429 17.821398,10.4359288 C13.3005011,18.1929938 10.710443,27.2151234 10.710443,36.8402889 C10.710443,55.061526 19.9835254,71.1374907 34.0762135,80.5557137 C25.4660961,80.2832239 17.3681846,77.9207088 10.2862577,73.9869292 C10.2825122,74.2060448 10.2825122,74.4260967 10.2825122,74.647085 C10.2825122,100.094453 28.3867003,121.322443 52.413563,126.14673 C48.0059695,127.347184 43.3661509,127.988612 38.5755734,127.988612 C35.1914554,127.988612 31.9009766,127.659938 28.694773,127.046602 C35.3777973,147.913145 54.7742053,163.097665 77.7569918,163.52185 C59.7820257,177.607983 37.1354036,186.004604 12.5289147,186.004604 C8.28987161,186.004604 4.10888474,185.75646 0,185.271409 C23.2431033,200.173139 50.8507261,208.867532 80.5109185,208.867532 C177.116529,208.867532 229.943977,128.836982 229.943977,59.4326002 C229.943977,57.1552968 229.893412,54.8901664 229.792282,52.6381454 C240.053257,45.2331635 248.958338,35.9825545 256,25.4500259" fill="#55acee"></path>
            </g>
        </svg>
        <svg id="google">
            <path d="M8.16 6.857V9.6h4.537c-.183 1.177-1.37 3.45-4.537 3.45-2.73 0-4.96-2.26-4.96-5.05s2.23-5.05 4.96-5.05c1.554 0 2.594.66 3.19 1.233l2.17-2.092C12.126.79 10.32 0 8.16 0c-4.423 0-8 3.577-8 8s3.577 8 8 8c4.617 0 7.68-3.246 7.68-7.817 0-.526-.057-.926-.126-1.326H8.16z" />
        </svg>
        <svg id="date_range" viewBox="0 0 24 24">
            <path d="M9 11H7v2h2v-2zm4 0h-2v2h2v-2zm4 0h-2v2h2v-2zm2-7h-1V2h-2v2H8V2H6v2H5c-1.11 0-1.99.9-1.99 2L3 20c0 1.1.89 2 2 2h14c1.1 0 2-.9 2-2V6c0-1.1-.9-2-2-2zm0 16H5V9h14v11z"/>
            <path d="M0 0h24v24H0z" fill="none"/>
        </svg>
        <svg id="brightness_auto" viewBox="0 0 24 24">
            <path d="M0 0h24v24H0z" fill="none"/>
            <path d="M10.85 12.65h2.3L12 9l-1.15 3.65zM20 8.69V4h-4.69L12 .69 8.69 4H4v4.69L.69 12 4 15.31V20h4.69L12 23.31 15.31 20H20v-4.69L23.31 12 20 8.69zM14.3 16l-.7-2h-3.2l-.7 2H7.8L11 7h2l3.2 9h-1.9z"/>
        </svg>
        <svg id="keycloak" viewBox="0 0 304 304">
            <style type="text/css">	.st0{display:none;fill:#FFFFFF;}
</style>
            <g>
                <path d="M106,1.1c13,7.1,26.2,13.7,38.8,21.4c26.2,15.9,27,59.1,1.7,76.8c-2,1.4-3.8,3.1-7.2,5.8c3.5,0.3,5.2,0.8,6.8,0.6		c17.2-2.4,31.6,3.2,45.6,13.1c11.6,8.2,24.4,15.4,37.6,20.8c15.1,6.2,30.5,3.6,44.9-4.2c3.4-1.8,6.9-3.4,10.3-5.1		c0.8,0.7,1.6,1.4,2.5,2.1c-2,4.4-4,8.7-6.1,13.1c-1.2,2.7-3.1,5.2-3.7,8.1c-3.8,18.5-15.4,27.9-33.7,30c-2.5,0.3-5.1,1.1-7.4,2.3		c-3.4,1.9-6.6,4.3-9.9,6.5c2.3,3,5.1,5.8,6.9,9.1c2.9,5.2,8,11.2,7,15.8c-1,4.7-7.8,8.7-12.9,11.8c-2.8,1.7-7.2,1-10.9,1.2		c-15,0.7-17.3,3.6-15.7,18.7c0.9,8.1-3.9,13.7-10.9,14.2c-10.9,0.8-21.9,0-32.8-1.3c-9.8-1.1-19.4-3.8-28.3-5.6		c-1.5,1.9-2.4,2.5-2.3,3c3.6,20.7-12.8,29.9-24.3,41.7c-1.9,2-8.2,2.8-9.7,1.3c-5.1-4.9-10.7-10.6-12.7-17		c-2.2-7-0.5-15.2-0.5-23.8c-25.9,2.5-50.2,3.6-62.4-24.3c0-2.2,0-4.5,0-6.7c2.6-3,3-10.2,10-3.8c9.2,8.4,18.5,5.9,20.5-6.5		c1.8-10.6,1.2-22.1-0.6-32.8c-3-17-9.4-33.6-11.5-50.7c-2.4-19.3,5.7-26.9,25.1-28.5c1.9-0.2,3.7-1,7.8-2.1		c-4.6-3.4-7.5-5.5-10.4-7.5c-23.4-16.2-23.2-59.9,0.8-74.9C71.7,15.4,85.7,8.6,99.3,1.1C101.5,1.1,103.7,1.1,106,1.1z M231.9,177.9		c-16-2-25.8-10.7-34.1-21.5c-2.9-3.8-6.1-7.5-9-11.3c-14.1-18.6-33.1-21.8-54.6-18.1c-5.7,1-8.3,3.2-8.3,9.3		c0.2,35.2,0,70.3,0.3,105.5c0,2.6,2.4,7.1,4.3,7.4c17.4,3.1,34.8,6,52.4,8c7.3,0.8,11.6-2.7,10.1-11.6c-2.3-13.5,4-20.5,17.9-21.8		c5.1-0.5,10.4-0.6,15.3-2c9.4-2.7,10.4-8.6,3-15.1C215.3,194.6,215.5,190.1,231.9,177.9z M156.1,62.4c1.5-15.8-3.2-27.6-17.9-36.2		c-39.7-23.1-32.7-22.7-73,1.5c-22.6,13.6-23,51.7-1.4,66.8c4.2,3,8.9,7.5,10.1,12.2c2.3,9.6,10.5,13.6,17.1,15.8		c18.5,6.3,32.7-1.3,41.2-19c1.4-2.8,3.8-5.8,6.5-7.2C152.7,88.9,157.8,77.3,156.1,62.4z M86.6,129.9c-0.4,2.7-0.8,4.5-0.8,6.3		c0,47.9-0.3,95.7,0.3,143.5c0.1,5.7,5.4,11.3,8.4,17.3c17.8-13.2,26.7-26.2,25.5-47.3c-2.1-35.1-0.6-70.4-0.5-105.7		c0-3.9,0-7.9,0-12.7c-4.8,0.6-8.1,1.1-12.5,1.7c5.4,7.2,12.2,13.2,3.3,21.3c-3-7-5.6-13-9.1-21.3c-2.3,9.3-3.9,15.5-5.4,21.7		c-1.4-0.2-2.7-0.4-4.1-0.6c0.5-7.1,1-14.2,1.5-22.5C92.3,131.5,89.7,130.8,86.6,129.9z M26.2,237.9c6.9,14.1,20.4,19.3,41.2,17.4		c8.3-0.8,12.2-3.4,12.1-12.9c-0.6-34.4-0.1-68.8-0.3-103.2c0-5.4,2.4-12.4-6.8-13.8c-9.1-1.3-17.4-0.9-21.5,8.8		c-1.8,4.3-3.1,9.4-2.7,14c1.1,11.7,3.9,23.2,5.1,34.9c1.2,12,2.9,24.3,1.3,36C52.3,235.6,43.6,240.5,26.2,237.9z"/>
                <path class="st0" d="M231.9,177.9c-16.4,12.2-16.6,16.7-2.7,29c7.4,6.5,6.4,12.4-3,15.1c-4.9,1.4-10.2,1.5-15.3,2		c-13.9,1.2-20.2,8.3-17.9,21.8c1.5,8.8-2.8,12.4-10.1,11.6c-17.5-2-35-4.8-52.4-8c-1.9-0.3-4.3-4.8-4.3-7.4		c-0.3-35.2-0.1-70.3-0.3-105.5c0-6.1,2.6-8.3,8.3-9.3c21.5-3.7,40.6-0.6,54.6,18.1c2.9,3.8,6,7.5,9,11.3		C206.1,167.2,215.9,175.9,231.9,177.9z"/>
                <path class="st0" d="M156.1,62.4c1.7,14.9-3.4,26.5-17.4,33.8c-2.7,1.4-5.1,4.4-6.5,7.2c-8.6,17.7-22.7,25.3-41.2,19		c-6.5-2.2-14.7-6.1-17.1-15.8c-1.1-4.7-5.8-9.2-10.1-12.2c-21.7-15.1-21.3-53.2,1.4-66.8c40.3-24.2,33.4-24.5,73-1.5		C152.9,34.7,157.6,46.5,156.1,62.4z M138.7,38.8c-24,9.6-48.5,9.6-73,1.2c-1.6,5.7-2.6,9.5-3.7,13.5c4.2,2.3,8.1,3.8,11.3,6.2		c20,15.4,39.1,14.7,60,0.4C142.1,54,145.5,49.9,138.7,38.8z"/>
                <path class="st0" d="M86.6,129.9c3.1,0.8,5.7,1.6,6.6,1.8c-0.6,8.3-1,15.4-1.5,22.5c1.4,0.2,2.7,0.4,4.1,0.6		c1.5-6.2,3.1-12.4,5.4-21.7c3.5,8.3,6.1,14.4,9.1,21.3c8.9-8.1,2-14.1-3.3-21.3c4.4-0.6,7.7-1,12.5-1.7c0,4.8,0,8.7,0,12.7		c0,35.2-1.5,70.6,0.5,105.7c1.3,21.1-7.7,34.1-25.5,47.3c-3.1-6-8.3-11.6-8.4-17.3c-0.7-47.8-0.4-95.7-0.3-143.5		C85.8,134.4,86.3,132.6,86.6,129.9z"/>
                <path class="st0" d="M26.2,237.9c17.4,2.6,26.1-2.3,28.3-18.8c1.6-11.7-0.2-24.1-1.3-36c-1.2-11.7-3.9-23.2-5.1-34.9		c-0.4-4.6,0.9-9.7,2.7-14c4.1-9.7,12.5-10.1,21.5-8.8c9.2,1.3,6.8,8.4,6.8,13.8c0.2,34.4-0.3,68.8,0.3,103.2		c0.2,9.5-3.8,12.1-12.1,12.9C46.5,257.2,33.1,252,26.2,237.9z"/>
                <path d="M138.7,38.8c6.8,11.1,3.3,15.2-5.5,21.3c-20.9,14.3-40,15-60-0.4c-3.2-2.4-7-3.9-11.3-6.2c1.1-4,2.1-7.7,3.7-13.5		C90.2,48.3,114.7,48.4,138.7,38.8z"/>
            </g>
            <g id="Layer_1_1_"></g>
        </svg>
        <svg id="api" x="0px" y="0px" viewBox="0 0 1000 1000">
            <metadata> Svg Vector Icons : http://www.onlinewebfonts.com/icon </metadata>
            <g>
                <path d="M824.6,458.4C822.2,317.5,707,203.5,566.2,203.5c-95.5,0-183.7,53.9-229.1,137.2c-20.8-14.7-45.3-23.3-71-23.3c-66.1,0-120.1,53.9-120.1,120.1c0,2.4,0,6.1,0,8.6C66.4,464.5,10,535.5,10,618.8c0,98,79.6,177.6,177.6,177.6H821c93.1,0,169-75.9,169-169C990,535.5,916.5,460.8,824.6,458.4z M821,772H187.6c-84.5,0-153.1-68.6-153.1-153.1c0-74.7,53.9-138.4,127.4-150.7l12.3-2.4l-2.5-12.3c-1.2-6.1-1.2-11-1.2-15.9c0-52.7,42.9-95.6,95.6-95.6c24.5,0,47.8,9.8,66.1,26.9l12.3,12.3l7.3-14.7c38-83.3,122.5-137.2,214.4-137.2c129.8,0,235.2,105.4,235.2,235.2c0,2.4,0,4.9,0,6.1v14.7l15.9-1.2c2.4,0,3.7,0,6.1,0C903,484.1,968,549,968,628.6C968,708.3,900.6,772,821,772z"/>
                <path d="M386.1,493.9L386.1,493.9c-6.1,0-12.2,3.7-13.5,9.8l-62.5,158l22,8.6l18.4-45.3h72.3l18.4,45.3l22.1-8.6l-62.5-158C397.1,497.6,392.2,493.9,386.1,493.9z M359.1,600.4l26.9-68.6l27,68.6H359.1z"/>
                <path d="M553.9,487.8h-74.7V500v105.4v61.3h23.3v-61.3h51.4c31.8,0,58.8-25.7,58.8-58.8C612.7,513.5,587,487.8,553.9,487.8z M553.9,580.9h-51.4v-68.6h51.4c19.6,0,34.3,15.9,34.3,34.3C588.2,564.9,573.5,580.9,553.9,580.9z"/>
                <path d="M642.1,500h23.3v165.4h-23.3V500z"/>
            </g>
        </svg>
        <svg id="book" viewBox="0 0 24 24">
            <path d="M0 0h24v24H0z" fill="none"/>
            <path d="M18 2H6c-1.1 0-2 .9-2 2v16c0 1.1.9 2 2 2h12c1.1 0 2-.9 2-2V4c0-1.1-.9-2-2-2zM6 4h5v8l-2.5-1.5L6 12V4z"/>
        </svg>
        <svg id="home" viewBox="0 0 24 24">
            <path d="M10 20v-6h4v6h5v-8h3L12 3 2 12h3v8z"/>
        </svg>
        <svg id="map" viewBox="0 0 24 24">
            <path d="M20.5 3l-.16.03L15 5.1 9 3 3.36 4.9c-.21.07-.36.25-.36.48V20.5c0 .28.22.5.5.5l.16-.03L9 18.9l6 2.1 5.64-1.9c.21-.07.36-.25.36-.48V3.5c0-.28-.22-.5-.5-.5zM15 19l-6-2.11V5l6 2.11V19z"/>
            <path d="M0 0h24v24H0z" fill="none"/>
        </svg>
        <svg id="pages" viewBox="0 0 24 24">
            <path d="M0 0h24v24H0z" fill="none"/>
            <path d="M3 5v6h5L7 7l4 1V3H5c-1.1 0-2 .9-2 2zm5 8H3v6c0 1.1.9 2 2 2h6v-5l-4 1 1-4zm9 4l-4-1v5h6c1.1 0 2-.9 2-2v-6h-5l1 4zm2-14h-6v5l4-1-1 4h5V5c0-1.1-.9-2-2-2z"/>
        </svg>
        <svg id="menu" viewBox="0 0 24 24">
            <path d="M0 0h24v24H0z" fill="none" />
            <path d="M3 18h18v-2H3v2zm0-5h18v-2H3v2zm0-7v2h18V6H3z" />
        </svg>
        <svg id="github" viewBox="0 0 24 24">
            <path d="M12 .297c-6.63 0-12 5.373-12 12 0 5.303 3.438 9.8 8.205 11.385.6.113.82-.258.82-.577 0-.285-.01-1.04-.015-2.04-3.338.724-4.042-1.61-4.042-1.61C4.422 18.07 3.633 17.7 3.633 17.7c-1.087-.744.084-.729.084-.729 1.205.084 1.838 1.236 1.838 1.236 1.07 1.835 2.809 1.305 3.495.998.108-.776.417-1.305.76-1.605-2.665-.3-5.466-1.332-5.466-5.93 0-1.31.465-2.38 1.235-3.22-.135-.303-.54-1.523.105-3.176 0 0 1.005-.322 3.3 1.23.96-.267 1.98-.399 3-.405 1.02.006 2.04.138 3 .405 2.28-1.552 3.285-1.23 3.285-1.23.645 1.653.24 2.873.12 3.176.765.84 1.23 1.91 1.23 3.22 0 4.61-2.805 5.625-5.475 5.92.42.36.81 1.096.81 2.22 0 1.606-.015 2.896-.015 3.286 0 .315.21.69.825.57C20.565 22.092 24 17.592 24 12.297c0-6.627-5.373-12-12-12"/>
        </svg>
        <svg id="openlayer" viewBox="0 0 100 100">
            <g transform="translate(0,-952.36218)" id="layer1">
                <g transform="matrix(0.147975,0,0,0.147975,-3.8629317,928.80463)" id="g3853">
                    <rect width="480.20621" height="483.30295" ry="109.09932" x="-438.58575" y="426.20682" transform="matrix(0.76602035,-0.64281632,0.76990078,0.6381636,0,0)" id="rect3017-1" style="color:#000000;fill:#325158;fill-opacity:1;fill-rule:nonzero;stroke:none;marker:none;visibility:visible;display:inline;overflow:visible;enable-background:accumulate" />
                    <rect width="480.20621" height="483.30295" ry="109.09932" x="-396.65982" y="384.49219" transform="matrix(0.76602035,-0.64281632,0.76990078,0.6381636,0,0)" id="rect3017-7" style="color:#000000;fill:#e2e4e1;fill-opacity:1;fill-rule:nonzero;stroke:none;marker:none;visibility:visible;display:inline;overflow:visible;enable-background:accumulate" />
                    <rect width="480.20621" height="483.30295" ry="109.09932" x="-350.26178" y="338.328" transform="matrix(0.76602035,-0.64281632,0.76990078,0.6381636,0,0)" id="rect3017" style="color:#000000;fill:#83bcc5;fill-opacity:1;fill-rule:nonzero;stroke:none;marker:none;visibility:visible;display:inline;overflow:visible;enable-background:accumulate" />
                    <path d="m 1233.8003,1119.4669 c -53.8878,178.2803 -220.6429,298.2666 -406.80645,292.7119 l -32.97308,-83.598 164.08844,-297.9751 z" transform="matrix(-1.133035,-0.44689667,0.44689667,-1.133035,991.42559,2357.536)" clip-path="url(#clipPath3849)" id="path3812" style="color:#000000;fill:#70b3be;fill-opacity:1;fill-rule:nonzero;stroke:none;marker:none;visibility:visible;display:inline;overflow:visible;enable-background:accumulate" />
                </g>
            </g>
        </svg>
    </defs>
</svg>